<svg xmlns="http://www.w3.org/2000/svg" xmlns:xlink="http://www.w3.org/1999/xlink" width="500" zoomAndPan="magnify" viewBox="0 0 375 374.999991" height="500" preserveAspectRatio="xMidYMid meet" version="1.0"><defs><clipPath id="e111ec8e85"><path d="M 27.976562 0 L 164.609375 0 L 164.609375 375 L 27.976562 375 Z M 27.976562 0 " clip-rule="nonzero"/></clipPath><clipPath id="696d025349"><path d="M 96.292969 0 L 347.023438 0 L 347.023438 266 L 96.292969 266 Z M 96.292969 0 " clip-rule="nonzero"/></clipPath><clipPath id="a6741ff0c5"><path d="M 221.65625 0 C 152.421875 0 96.292969 59.464844 96.292969 132.824219 C 96.292969 206.179688 152.421875 265.644531 221.65625 265.644531 C 290.894531 265.644531 347.023438 206.179688 347.023438 132.824219 C 347.023438 59.464844 290.894531 0 221.65625 0 Z M 221.65625 0 " clip-rule="nonzero"/></clipPath><clipPath id="0c138a1e93"><path d="M 27.976562 123.824219 L 347 123.824219 L 347 375 L 27.976562 375 Z M 27.976562 123.824219 " clip-rule="nonzero"/></clipPath><clipPath id="11adf7ff3d"><path d="M 187.5 123.824219 L 347.023438 375 L 27.976562 375 Z M 187.5 123.824219 " clip-rule="nonzero"/></clipPath><clipPath id="c598456e2f"><path d="M 85.027344 0 L 221.65625 0 L 221.65625 232.328125 L 85.027344 232.328125 Z M 85.027344 0 " clip-rule="nonzero"/></clipPath></defs><g clip-path="url(#e111ec8e85)"><path fill="#393a3d" d="M 27.976562 0 L 164.609375 0 L 164.609375 375.203125 L 27.976562 375.203125 Z M 27.976562 0 " fill-opacity="1" fill-rule="nonzero"/></g><g clip-path="url(#696d025349)"><g clip-path="url(#a6741ff0c5)"><path fill="#393a3d" d="M 96.292969 0 L 347.023438 0 L 347.023438 265.421875 L 96.292969 265.421875 Z M 96.292969 0 " fill-opacity="1" fill-rule="nonzero"/></g></g><g clip-path="url(#0c138a1e93)"><g clip-path="url(#11adf7ff3d)"><path fill="#393a3d" d="M 27.976562 123.824219 L 346.851562 123.824219 L 346.851562 375 L 27.976562 375 Z M 27.976562 123.824219 " fill-opacity="1" fill-rule="nonzero"/></g></g><g clip-path="url(#c598456e2f)"><path fill="#393a3d" d="M 85.027344 0 L 221.65625 0 L 221.65625 232.167969 L 85.027344 232.167969 Z M 85.027344 0 " fill-opacity="1" fill-rule="nonzero"/></g></svg>