<svg xmlns="http://www.w3.org/2000/svg" xmlns:xlink="http://www.w3.org/1999/xlink" width="500" zoomAndPan="magnify" viewBox="0 0 375 374.999991" height="500" preserveAspectRatio="xMidYMid meet" version="1.0"><defs><clipPath id="07bb4f3856"><path d="M 28.792969 78.777344 L 347 78.777344 L 347 375 L 28.792969 375 Z M 28.792969 78.777344 " clip-rule="nonzero"/></clipPath><clipPath id="02d5935d05"><path d="M 187.992188 78.777344 C 100.066406 78.777344 28.792969 145.089844 28.792969 226.890625 C 28.792969 308.6875 100.066406 375 187.992188 375 C 275.914062 375 347.1875 308.6875 347.1875 226.890625 C 347.1875 145.089844 275.914062 78.777344 187.992188 78.777344 Z M 187.992188 78.777344 " clip-rule="nonzero"/></clipPath><clipPath id="c15b949aca"><path d="M 119.28125 85.507812 L 257.496094 85.507812 L 257.496094 308.242188 L 119.28125 308.242188 Z M 119.28125 85.507812 " clip-rule="nonzero"/></clipPath><clipPath id="f7837f916b"><path d="M 28.792969 0 L 347.1875 0 L 347.1875 221.179688 L 28.792969 221.179688 Z M 28.792969 0 " clip-rule="nonzero"/></clipPath></defs><g clip-path="url(#07bb4f3856)"><g clip-path="url(#02d5935d05)"><path fill="#393a3d" d="M 28.792969 78.777344 L 347 78.777344 L 347 375 L 28.792969 375 Z M 28.792969 78.777344 " fill-opacity="1" fill-rule="nonzero"/></g></g><g clip-path="url(#c15b949aca)"><path fill="#393a3d" d="M 119.28125 85.507812 L 257.496094 85.507812 L 257.496094 308.488281 L 119.28125 308.488281 Z M 119.28125 85.507812 " fill-opacity="1" fill-rule="nonzero"/></g><g clip-path="url(#f7837f916b)"><path fill="#393a3d" d="M 28.792969 0 L 347.605469 0 L 347.605469 221.179688 L 28.792969 221.179688 Z M 28.792969 0 " fill-opacity="1" fill-rule="nonzero"/></g></svg>