<svg xmlns="http://www.w3.org/2000/svg" xmlns:xlink="http://www.w3.org/1999/xlink" width="500" zoomAndPan="magnify" viewBox="0 0 375 374.999991" height="500" preserveAspectRatio="xMidYMid meet" version="1.0"><defs><clipPath id="e3bce3f13b"><path d="M 28.300781 18.960938 L 346.699219 18.960938 L 346.699219 359.742188 L 28.300781 359.742188 Z M 28.300781 18.960938 " clip-rule="nonzero"/></clipPath><clipPath id="407b484f9d"><path d="M 187.5 18.960938 C 99.578125 18.960938 28.300781 95.132812 28.300781 189.097656 C 28.300781 283.0625 99.578125 359.234375 187.5 359.234375 C 275.421875 359.234375 346.699219 283.0625 346.699219 189.097656 C 346.699219 95.132812 275.421875 18.960938 187.5 18.960938 Z M 187.5 18.960938 " clip-rule="nonzero"/></clipPath><clipPath id="571e11a137"><path d="M 214.613281 1.597656 L 346.699219 1.597656 L 346.699219 375 L 214.613281 375 Z M 214.613281 1.597656 " clip-rule="nonzero"/></clipPath></defs><g clip-path="url(#e3bce3f13b)"><g clip-path="url(#407b484f9d)"><path fill="#393a3d" d="M 28.300781 18.960938 L 346.699219 18.960938 L 346.699219 359.742188 L 28.300781 359.742188 Z M 28.300781 18.960938 " fill-opacity="1" fill-rule="nonzero"/></g></g><g clip-path="url(#571e11a137)"><path fill="#393a3d" d="M 214.613281 1.597656 L 346.699219 1.597656 L 346.699219 376.691406 L 214.613281 376.691406 Z M 214.613281 1.597656 " fill-opacity="1" fill-rule="nonzero"/></g></svg>