<svg xmlns="http://www.w3.org/2000/svg" xmlns:xlink="http://www.w3.org/1999/xlink" width="500" zoomAndPan="magnify" viewBox="0 0 375 374.999991" height="500" preserveAspectRatio="xMidYMid meet" version="1.0"><defs><g/></defs><g fill="#393a3d" fill-opacity="1"><g transform="translate(-37.499993, 336.920136)"><g><path d="M 361.707031 -236.109375 C 355.496094 -233.445312 343.511719 -231.671875 329.308594 -231.671875 L 109.621094 -231.671875 C 95.863281 -231.671875 76.78125 -232.558594 58.140625 -234.332031 L 58.140625 -176.636719 C 76.78125 -178.414062 98.96875 -178.855469 109.621094 -178.855469 L 323.984375 -178.855469 C 315.996094 -154.003906 302.238281 -126.488281 278.269531 -102.078125 C 244.542969 -67.460938 191.285156 -38.167969 124.269531 -24.410156 L 168.648438 25.742188 C 225.457031 9.765625 282.265625 -20.414062 327.089844 -70.121094 C 360.375 -106.960938 379.460938 -150.007812 392.773438 -193.058594 C 394.550781 -197.941406 398.101562 -205.929688 401.207031 -211.699219 Z M 98.96875 -283.152344 C 111.839844 -284.039062 130.925781 -284.484375 145.128906 -284.484375 L 315.109375 -284.484375 C 331.085938 -284.484375 351.945312 -284.039062 363.925781 -283.152344 L 363.925781 -340.40625 C 351.5 -338.628906 329.753906 -338.1875 315.996094 -338.1875 L 145.128906 -338.1875 C 130.039062 -338.1875 111.398438 -338.628906 98.96875 -340.40625 Z M 98.96875 -283.152344 "/></g></g></g></svg>