<svg xmlns="http://www.w3.org/2000/svg" xmlns:xlink="http://www.w3.org/1999/xlink" width="500" zoomAndPan="magnify" viewBox="0 0 375 374.999991" height="500" preserveAspectRatio="xMidYMid meet" version="1.0"><defs><g/></defs><g fill="#393a3d" fill-opacity="1"><g transform="translate(-13.729978, 322.378946)"><g><path d="M 64.695312 17.570312 C 99.039062 -12.777344 123.796875 -51.914062 135.777344 -97.042969 C 146.5625 -137.375 147.757812 -221.640625 147.757812 -268.761719 C 147.757812 -285.136719 150.15625 -303.105469 150.554688 -304.703125 L 91.851562 -304.703125 C 94.246094 -295.121094 95.445312 -284.335938 95.445312 -268.363281 C 95.445312 -220.042969 95.046875 -144.566406 83.863281 -110.21875 C 72.683594 -76.277344 51.117188 -39.535156 15.972656 -14.777344 Z M 234.019531 18.769531 C 239.210938 14.777344 243.203125 11.183594 251.589844 6.789062 C 296.316406 -15.972656 353.824219 -59.105469 386.96875 -102.234375 L 356.21875 -146.164062 C 329.464844 -107.425781 289.929688 -75.875 257.582031 -61.898438 L 257.582031 -270.757812 C 257.582031 -288.730469 259.976562 -304.304688 260.375 -305.503906 L 200.875 -305.503906 C 201.273438 -304.304688 204.066406 -289.128906 204.066406 -271.160156 L 204.066406 -38.335938 C 204.066406 -27.554688 202.46875 -16.375 200.875 -8.785156 Z M 234.019531 18.769531 "/></g></g></g></svg>