<svg xmlns="http://www.w3.org/2000/svg" xmlns:xlink="http://www.w3.org/1999/xlink" width="500" zoomAndPan="magnify" viewBox="0 0 375 374.999991" height="500" preserveAspectRatio="xMidYMid meet" version="1.0"><defs><g/></defs><g fill="#393a3d" fill-opacity="1"><g transform="translate(-39.166535, 344.372614)"><g><path d="M 358.585938 -330.480469 C 346.347656 -327.304688 331.839844 -326.851562 322.773438 -326.851562 L 113.332031 -326.851562 C 98.375 -326.851562 72.535156 -329.121094 58.933594 -330.480469 L 58.933594 -266.558594 C 70.71875 -267.464844 92.480469 -268.375 112.878906 -268.375 L 324.132812 -268.375 C 318.238281 -229.839844 301.011719 -178.160156 271.09375 -140.535156 C 234.375 -94.746094 183.148438 -55.304688 93.386719 -34.453125 L 142.800781 19.945312 C 223.492188 -5.894531 283.785156 -50.773438 325.039062 -105.171875 C 362.667969 -155.492188 382.613281 -225.761719 393.039062 -270.1875 C 395.304688 -280.160156 398.933594 -292.851562 403.011719 -301.917969 Z M 358.585938 -330.480469 "/></g></g></g></svg>