<svg version="1.1" id="Layer_1" xmlns="http://www.w3.org/2000/svg" xmlns:xlink="http://www.w3.org/1999/xlink" x="0px" y="0px"
	 width="100%" viewBox="0 0 496 496" enable-background="new 0 0 496 496" xml:space="preserve">
<path fill="#000000" opacity="1.000000" stroke="none" 
	d="
M263.550903,165.380478 
	C280.213226,162.376602 296.557709,160.435333 313.093201,160.789307 
	C319.416412,160.924683 325.736572,161.590469 331.863953,163.208267 
	C336.244812,164.364929 340.872437,165.909485 342.031952,170.991425 
	C343.186279,176.050583 340.393250,180.032394 336.848297,183.286530 
	C327.510559,191.858292 316.203217,197.246674 304.878662,202.525421 
	C276.306610,215.843811 246.374084,225.652267 216.819672,236.430313 
	C207.790573,239.723083 198.696182,242.836868 188.577316,246.404327 
	C204.807877,243.299927 220.086212,241.261536 235.377090,239.316391 
	C261.125763,236.040878 286.937988,233.419617 312.837250,231.632309 
	C329.953888,230.451111 347.066620,229.363998 364.236450,229.730988 
	C365.898712,229.766510 367.580322,229.780701 369.213715,230.046173 
	C371.045105,230.343857 373.109711,230.872070 372.916565,233.271927 
	C372.730743,235.580215 370.680603,235.986359 368.806824,236.071487 
	C359.992523,236.472000 351.176605,236.851349 342.358032,237.139618 
	C307.736725,238.271393 273.346252,242.011658 238.961197,245.961197 
	C215.306900,248.678177 191.915939,252.862106 168.516571,257.132050 
	C163.191696,258.103729 160.328323,259.909729 158.532318,265.405792 
	C151.814560,285.963104 144.182724,306.227295 139.826599,327.492828 
	C139.426300,329.447021 139.214981,331.442017 138.767685,333.383911 
	C138.334747,335.263550 138.275894,337.936035 135.568939,337.656952 
	C132.641800,337.355133 132.853027,334.748047 133.105377,332.546265 
	C133.769073,326.755493 134.902649,321.060181 136.385483,315.414276 
	C140.660995,299.135254 146.066345,283.227081 151.826218,267.428436 
	C152.554459,265.430939 153.551025,263.464508 153.300385,260.888977 
	C149.617340,260.108185 146.103973,261.098358 142.719971,262.134552 
	C114.870560,270.662170 87.062614,279.325165 59.217472,287.866821 
	C54.129780,289.427460 48.977051,290.859039 43.763973,291.895782 
	C40.802128,292.484863 37.198071,293.775604 35.016865,289.528778 
	C63.545597,282.995514 90.551933,272.555847 119.323730,263.958069 
	C114.206642,262.958588 110.266075,262.511444 106.524345,261.396790 
	C95.843346,258.214996 92.556824,250.129318 97.896370,240.465866 
	C101.595139,233.771866 107.210098,228.813202 113.150345,224.186996 
	C128.558990,212.186935 146.249573,204.410904 163.975204,196.689819 
	C191.921936,184.516556 220.899872,175.455124 250.420456,168.044586 
	C254.609131,166.993103 258.896362,166.334351 263.550903,165.380478 
M209.911484,185.455307 
	C204.420242,187.389877 199.009201,189.607834 193.418274,191.190201 
	C185.724289,193.367798 181.585678,198.708511 179.098755,205.812134 
	C174.867233,217.898956 170.613754,229.978363 166.467407,242.094391 
	C165.920486,243.692551 164.546951,245.392273 166.027771,247.209167 
	C167.673172,247.931702 168.991013,246.908813 170.344681,246.434616 
	C191.064835,239.176056 211.794449,231.943176 232.470291,224.559845 
	C260.200836,214.657272 288.019989,204.936462 314.132080,191.102402 
	C320.732025,187.605774 327.432892,184.093124 332.682739,178.593735 
	C337.427002,173.623901 336.692169,171.172897 330.105133,169.435089 
	C317.337646,166.066727 304.310120,166.632721 291.387512,167.633270 
	C263.701660,169.776886 237.036453,176.892151 209.911484,185.455307 
M120.531906,227.065201 
	C115.531532,230.424255 110.967354,234.297653 107.012848,238.843109 
	C104.024902,242.277557 100.710518,246.060303 102.674599,250.844574 
	C104.426033,255.110840 109.212471,256.070618 113.262604,256.357880 
	C127.120773,257.340698 140.847778,256.315613 154.205902,252.084167 
	C156.638245,251.313690 157.969040,249.795303 158.840912,247.359818 
	C164.392365,231.852432 170.102386,216.401855 175.712265,200.915207 
	C176.005386,200.106033 176.913757,199.163025 175.476395,197.922333 
	C156.548050,205.735291 137.872131,214.348007 120.531906,227.065201 
z"/>
<path fill="#000000" opacity="1.000000" stroke="none" 
	d="
M375.830139,212.985748 
	C359.483276,217.197372 343.901215,222.710846 327.650391,225.682495 
	C326.179871,225.951401 324.694061,226.156265 323.207153,226.312912 
	C313.914703,227.291901 312.574005,226.202850 312.050476,217.080139 
	C308.118988,220.584137 304.320343,224.015427 300.463898,227.380478 
	C299.223236,228.463043 297.833191,229.785690 296.061401,228.489777 
	C294.130005,227.077118 294.724457,225.182037 295.729767,223.575058 
	C302.374420,212.953735 310.648834,204.034454 322.190277,198.578522 
	C323.484833,197.966583 324.734192,197.684631 325.921356,198.673630 
	C327.244019,199.775558 327.529358,201.267410 326.812866,202.742462 
	C325.359131,205.735260 323.727386,208.641083 322.198700,211.598099 
	C321.004333,213.908401 319.254028,216.045410 319.671692,218.977386 
	C321.982849,220.301315 324.249023,219.634262 326.495667,219.165070 
	C346.411438,215.005905 365.520172,207.936386 385.190125,202.883896 
	C402.116455,198.536163 418.940704,193.751205 436.336456,191.523666 
	C439.729980,191.089127 442.551453,190.482620 443.510651,186.126114 
	C444.324921,182.427750 447.828552,181.685394 450.400726,184.353058 
	C452.277710,186.299759 454.314178,187.297745 456.841644,187.737350 
	C459.170837,188.142471 461.018372,189.288696 461.089081,191.881729 
	C461.160187,194.488419 459.317932,196.172745 457.053986,196.145065 
	C448.911346,196.045517 446.427551,201.526627 443.934875,207.885498 
	C435.059509,230.526764 423.286560,251.916321 414.775421,274.724701 
	C412.332306,281.271667 410.128540,287.908325 407.660492,294.445496 
	C406.836884,296.627045 406.573639,300.197998 403.259644,299.507050 
	C399.614838,298.747162 400.768036,295.332794 401.187103,292.813324 
	C403.332794,279.913300 407.652100,267.698669 413.026489,255.821152 
	C421.128204,237.916199 429.194092,219.995071 437.261475,202.074631 
	C437.525421,201.488297 437.639526,200.834488 438.125336,199.191147 
	C416.665253,201.852402 396.474976,207.512619 375.830139,212.985748 
z"/>
</svg>