<svg xmlns="http://www.w3.org/2000/svg" xmlns:xlink="http://www.w3.org/1999/xlink" width="351" zoomAndPan="magnify" viewBox="0 0 263.25 83.999999" height="112" preserveAspectRatio="xMidYMid meet" version="1.0"><path fill="#0e0e0c" d="M 125.378906 6.667969 C 132.503906 5.382812 139.492188 4.550781 146.5625 4.703125 C 149.265625 4.761719 151.96875 5.046875 154.589844 5.738281 C 156.460938 6.234375 158.441406 6.894531 158.9375 9.066406 C 159.429688 11.230469 158.234375 12.933594 156.71875 14.324219 C 152.726562 17.988281 147.890625 20.292969 143.050781 22.550781 C 130.832031 28.246094 118.03125 32.441406 105.394531 37.046875 C 101.535156 38.457031 97.644531 39.789062 93.320312 41.3125 C 100.257812 39.984375 106.792969 39.113281 113.332031 38.28125 C 124.339844 36.882812 135.378906 35.761719 146.453125 34.996094 C 153.773438 34.492188 161.089844 34.027344 168.429688 34.183594 C 169.140625 34.199219 169.859375 34.203125 170.558594 34.320312 C 171.34375 34.445312 172.226562 34.671875 172.144531 35.699219 C 172.0625 36.683594 171.1875 36.859375 170.386719 36.894531 C 166.617188 37.066406 162.847656 37.226562 159.074219 37.351562 C 144.273438 37.835938 129.566406 39.433594 114.863281 41.125 C 104.75 42.285156 94.746094 44.074219 84.742188 45.902344 C 82.464844 46.316406 81.238281 47.089844 80.472656 49.4375 C 77.597656 58.230469 74.335938 66.894531 72.472656 75.988281 C 72.300781 76.824219 72.210938 77.675781 72.019531 78.507812 C 71.835938 79.308594 71.808594 80.453125 70.652344 80.332031 C 69.402344 80.203125 69.492188 79.089844 69.597656 78.148438 C 69.882812 75.671875 70.367188 73.238281 71 70.820312 C 72.828125 63.859375 75.140625 57.058594 77.605469 50.304688 C 77.914062 49.449219 78.339844 48.609375 78.234375 47.507812 C 76.660156 47.171875 75.15625 47.597656 73.710938 48.039062 C 61.800781 51.6875 49.910156 55.390625 38.003906 59.042969 C 35.828125 59.710938 33.625 60.320312 31.394531 60.765625 C 30.128906 61.015625 28.589844 61.570312 27.65625 59.753906 C 39.855469 56.960938 51.402344 52.496094 63.707031 48.820312 C 61.519531 48.390625 59.832031 48.199219 58.234375 47.722656 C 53.664062 46.363281 52.261719 42.90625 54.542969 38.773438 C 56.125 35.910156 58.527344 33.792969 61.066406 31.8125 C 67.65625 26.683594 75.21875 23.355469 82.800781 20.054688 C 94.75 14.851562 107.140625 10.976562 119.761719 7.804688 C 121.554688 7.355469 123.386719 7.074219 125.378906 6.667969 M 102.441406 15.25 C 100.09375 16.078125 97.78125 17.027344 95.390625 17.703125 C 92.097656 18.632812 90.328125 20.917969 89.265625 23.957031 C 87.457031 29.125 85.636719 34.289062 83.863281 39.46875 C 83.628906 40.152344 83.042969 40.878906 83.675781 41.65625 C 84.378906 41.964844 84.945312 41.527344 85.523438 41.328125 C 94.382812 38.222656 103.246094 35.128906 112.085938 31.972656 C 123.945312 27.738281 135.839844 23.582031 147.007812 17.664062 C 149.828125 16.171875 152.695312 14.667969 154.9375 12.316406 C 156.96875 10.191406 156.652344 9.144531 153.835938 8.402344 C 148.378906 6.960938 142.804688 7.203125 137.28125 7.628906 C 125.441406 8.546875 114.039062 11.589844 102.441406 15.25 M 64.222656 33.042969 C 62.085938 34.480469 60.132812 36.136719 58.441406 38.082031 C 57.164062 39.546875 55.746094 41.167969 56.585938 43.210938 C 57.335938 45.035156 59.382812 45.445312 61.113281 45.570312 C 67.039062 45.988281 72.910156 45.550781 78.621094 43.742188 C 79.660156 43.414062 80.230469 42.761719 80.601562 41.722656 C 82.976562 35.089844 85.417969 28.484375 87.816406 21.863281 C 87.941406 21.515625 88.332031 21.113281 87.71875 20.582031 C 79.621094 23.921875 71.636719 27.605469 64.222656 33.042969 Z M 64.222656 33.042969 " fill-opacity="1" fill-rule="nonzero"/><path fill="#0e0e0c" d="M 173.390625 27.023438 C 166.398438 28.824219 159.734375 31.183594 152.785156 32.453125 C 152.15625 32.566406 151.523438 32.65625 150.886719 32.722656 C 146.914062 33.140625 146.339844 32.675781 146.117188 28.773438 C 144.433594 30.273438 142.8125 31.738281 141.160156 33.179688 C 140.632812 33.640625 140.035156 34.207031 139.28125 33.652344 C 138.453125 33.050781 138.707031 32.238281 139.136719 31.550781 C 141.980469 27.007812 145.515625 23.195312 150.453125 20.863281 C 151.003906 20.601562 151.539062 20.480469 152.046875 20.902344 C 152.613281 21.375 152.734375 22.011719 152.429688 22.644531 C 151.808594 23.921875 151.109375 25.164062 150.457031 26.429688 C 149.945312 27.417969 149.195312 28.332031 149.375 29.585938 C 150.363281 30.152344 151.332031 29.867188 152.292969 29.664062 C 160.808594 27.886719 168.980469 24.863281 177.390625 22.703125 C 184.628906 20.84375 191.824219 18.796875 199.261719 17.847656 C 200.710938 17.660156 201.917969 17.402344 202.328125 15.539062 C 202.675781 13.957031 204.175781 13.640625 205.273438 14.78125 C 206.078125 15.613281 206.949219 16.039062 208.03125 16.226562 C 209.027344 16.398438 209.816406 16.890625 209.84375 18 C 209.875 19.113281 209.089844 19.835938 208.121094 19.824219 C 204.636719 19.78125 203.578125 22.125 202.511719 24.84375 C 198.714844 34.523438 193.679688 43.671875 190.042969 53.421875 C 188.996094 56.222656 188.054688 59.058594 187 61.855469 C 186.648438 62.789062 186.535156 64.316406 185.117188 64.019531 C 183.558594 63.695312 184.050781 62.234375 184.230469 61.15625 C 185.148438 55.640625 186.996094 50.417969 189.292969 45.339844 C 192.757812 37.683594 196.207031 30.019531 199.65625 22.359375 C 199.769531 22.105469 199.820312 21.828125 200.027344 21.125 C 190.851562 22.261719 182.214844 24.683594 173.390625 27.023438 Z M 173.390625 27.023438 " fill-opacity="1" fill-rule="nonzero"/></svg>